<svg xmlns="http://www.w3.org/2000/svg" fill="#4a3f7a" stroke="rgba(5,4,10,.55)" stroke-width=".4" viewBox="423.2 276.8 380 380"><path d="m512.7 502.8 3.5 2.4h1l8.8-3 1 3.1-.7 2.8-1.9 1.5-4.7-.3-6.8-4.2zm15.8-34.7.7 3 8.5.8.6-6.2 1.7-.9.4-2.2-2.7.7-3 4.5zm17.4-32.7 1.3 10.8 3.4.7.4 2-2.5 2 4.6 3.7 8.9-3.2.7-3.8 5.6-3.5 2.1-8 1.6-1.8-1.6-2.9 5.4-3.3-.7-1-2.5.1-.2 2.3H569v-3l-1.1-1.3-1.9 1.6.1 1.5-2.7 1-5.1-.3-6.6 7zm-95.2-15v4l1.1 2.2.8-.1 1.4-2.6-.8-1.1-.3-2.9-1-1zm56.8.2 4.1 5.4-1.2 1.4-3-.5-3.6-3.3.2-2.1z"/><path d="m437.4 547.5 3 11-.2 3.4-4.3 4.7-.6 7.5 16.6.1 5.4 2 4.4-.6-2.6-3.2V563l5.1-.2v-3.6l-4.1-.2-.8-8.6h-1.8l-1-.8h-1l-1.3 2.7h-5.3l-1.2-1.2.4-1.8-1.5-2z" class="mainland"/><path d="m435.6 544.5 1.5 2 2-2-.6-1.8h-.5z"/><path d="m279 600.6 1.7 1.6-6.3 9.5-2.3 2.4.8 10.8 5 6-4.2 7.2-3.1 1.4H267l1 5.6-5.6 2 1.3 4.7-3.3 10.7 4.1 3.3-2.2 5.5-3.8 6 2 4.2-5 .8-4-5-.6-15.4-6.3-26.2 1.9-9.2-4-11.7 2.6-15.2 2.5-3-.6-2.1 3.2-3 7 .5 4 4.3h4.5l4.7 2.9-1.4 3.2.3 3.3 6.7-.4z" class="mainland"/><path d="m264.7 687.6.3 5 3.8-.4 3.2-2.2-5.5-1zm165.8-284.1-.6 1.1.5.9 2-.5h1.7l1.9 1.6 4-.7 2.8-1.7.8-1.2-.1-1.5-2.7-2h-3.5l-.3 2-3.6 1.9z"/><path d="m673 609-.3 22-3.4 2.5-.3 2.1 4.6 3.1 11.3-2.1h5.9l2.1-3.1 12.9-2.5 9.2 2.8-.6 3.7 1.2 3.7 7-1.2.4 1.8-4.6 3.4 1.5 1.2 3.4-1.2-1 10.2 6.5 5 3.7-1.3 1.8 1.9 10.7-1.6 10.2-16.4 3.6-.9 7.4-13.6 1.8-11.7-4.6-5.9 1.9-1.2-3.7-11.5-4-2.7.6-15.5-3.7-2.8-.9-8.6h-1.8l-6.2 20.4-3.3.3-7.7-7.8 4.3-11.4-8-1.5-8.9 2.4-2.4 7.1-4 1-.3-5-16.3 10 .3 3.6-2.4 3.4h-6.2l-13.1 5.6z" class="mainland"/><path d="m728.8 668-1.6 6.3.3 4.3 4.6-.3 5.3-8zM509 418.7l-1 1.5 4.1 5.3 1.4-.5 2.4 2.5 1-4.3 2.5.4v-1.2l-4.2-3.7-.8 2.2zm-66.3-7.7-.3.6 5.8 6 2.1-3.1v-1.3l-2-2.2zm173.6 47-1.2 2 3 5.5v4.4l.6 1.2h3.4l2-1.8 1.4.8.3 2.7 1.1-.7v-3.4l-.9-.2-.6-2.8-2.4-.1-.6-1.6 1.5-2v-1h-4.2zM414 391.7l-.5 1.4 6 4h.3l.4-1.1.8-.6-1.3-1.5h-1l-1.2-1.4zm-9.5 101.8 3.1-.3 5.2 7.3-4.8 3.7-3.5-1-4.6.1-.8 2.8-3.9.1-1-1.4 1.3-4.5zM457 414l.2 4.4 1.5 3h5.4l2.5-1.6 2.4-1-.6-2.8.6-1.4-1.3-.7-1.7.2-1.3 1.3h-5.5zm21.5 124.4h3.7l-1 3.1-.9.8h-1.1l-.9-2.1zm-67-23.1h1.8l.1-5.2 2.4-3.4-.1-5.8h-2.1l-3.6 2.7 1.5 2.9zM689 515l-2.5 3.1 2 .6 1.2-1.6zm-450.4 46.4 7.1-3.1 2.4.2 1.6 6.5 10.8 3.6 1.8 5.5 4.5.6 1.9 4.7-1.4 4.3-7.2.6-2.7 6.8h-5.7l-1.8-.4-3.3 3.2-1.6-.2-5.6-13 1.5-2.2.6-9.2-1.4-5.5z"/><path d="M286.6 618.5 292 608l.2-8.8 10.1-6.5h5.7l4.4-7.5.8-14.4-1.8-3.8 10.7-9.8.4-10.8-14.5-7-17.6-5.5-8.2-.9 2.2-4.6-.6-7.1-1.8-.6-2.7 5.3-1.4 1.7-3.6-1.5-12 4.2-4.1-5 .6-5.4-3.8 4-4.2-2.4-.4.6v1.9l3.6 2-5.4 5.7h-3.4l-3.5-3.6-4 .1-.4 4.2 2.2 2.8-2.6 8.5-3.1.2-5 3.2-1.2 6.1 4.3 4.6.8-.9 3-.8 2.6 4.3 7.3-3.1 2.9.1 2 7L261 568l1.8 5.5 4.5.6 2.1 5.3-1.4 4.7 1.9 2.5-.3 3.7 5-.5 4.7 5.8-.4 4.1 2.7 2.3-6.5 10zm-64.5-155.4-1-.3-.2 2 1.4 1.4.9-1.3zm2.2 3.3-1.5.8 1.4 2 .8-1zm4.8 1.5h-1.6l.2 1 1.2 1.6 1-1zm-.7-2-2.6-1.1-.5-2.6 1-.4 1 2 1 .7zm-2.5-5.3-1.4-.3-.2-1.7-1.4-.5.9-1 1.7.6 1.2.8zm390.2-7 1.3 1.8h4.6l-.5-2.5zm-161.5 141 1.8.6-.2 5.3 1.9.2 4.4-4 5.2.6 1.4-3.5 6.7-6.1-8-9.2-.1-1.5-.9-.3-2.4 2.2-6.3.2-1 7.9-2.4.5zm1.8-211.7 1.3 2.1-.5 1.7v1.3l.6 1.7 2.6-1.6 3.4.1 2.3 1h6l1.7-4.2 1-1.5v-1l-3.7-5.3-3.3-1.3-2.7-.3-2.3.7v2.4l-3.2 4zM191.8 483.2v3.2h.7l2.5-4.6h-1.7z"/><path d="m151.8 281.2 1.7 2.6.9 3.5 4.3 1 3-3.2 2.6 1.3 7.3.6 5.1-2.1 1 7.1h3v-3l3 .2 7.5 9 5 3-2.6 4 1 1.1 9.7 2 .2 4.3 2.6.5.7-6.5 4-1.1 3 4.5 6.5 3 3.3.7 2.1-2.6.2-4.1 3.9-2.4 1.3 3.5-3.5 6 .5 3 1.9-3 3.9-3.4.2-4.6-2.2-3.4.7-2.9 5.2-2.6 2.3 1.8.5 15.2 3.6-3.3 2.2 1.3-3 5.2 3.8.9 5.6-8.7 4.8 5-2 8.9-4.7 2.6-4.5-2.2-8.2 1.8.9 2.8-2.2 3.4-6.7 1.6-7.5 5.8-6.7 9-.8 2.7 4.5 1.8 1.7 4.3 6.2 6.3 10 4.3-2.2 10-.2 2.8 2.6 1.8 3.4-4.6.4-8.7 5.4-.2 2.6-5 .4-7.6 7-13.4 8.5 3 4.6 6.3-2 6.3 3.5 2 8.4-5.7 2.3 15.4 7.8 9.4.2 4.7-8.6 2.2-4 4.3-8.7-2-4.3-.1-7.5 5.8 4.5-1 5.6-1.1 1 1.3-1.4 4.7.2 4.4 2.6 1.7 2.5-.6 1.3-2h1.8l-2.8 5.2-5.4.2-2.4 3.5h-3l-.9-2.6 4.3-4.3-5.1 1.7-.3-7.4-1.5-.8-4.5 2-.4 3.6h-10.4l-8.8 6-11.8 4-1.3-1.7 6-9-3.4-3.2-2.2-4.1-4.4-3.4-4.7-.4-8.4-5.9-61.1-10-1-4.2-5.6-5.2v-4.3l.8-4-.4-2-2.2-2.2-.4-3.5 5.6-4-3.4-18.6-4.8-.2-4.3-5.6z" class="mainland"/><path d="m130.7 350.1-1.5 2.8.5 2 1 .6-.2.8-1 .3.2 3 1.1 1.1 1-1-1.2-2.8.7-2.3 1.6-2.2-1.2-2zm4.8 17-1.3.4 2.4 2.8.6 3.4 2.5 2.6 2-.4v-3.4l-2.5-1.6zm132.6-71.3-1.5 1.6 1.4 2.1 6.3.8-4-4.3zm-77-25.7.2 3.5-6.9 7.2 1.7 5.8 5-1.4 2.9-4.2 7.3-2.8 5.9-.3-4.6-5-2.3 1.7-1.7-.6-1-2.1-2.1-2.2zm9-10.2-1.5 2.7 7.5 2.7 2.6-4 1.2 2.7h2l3.5-4-4.4-1.2-1.7-1.4-2.3 2.3zm13 5.4-5.9 2.5v2l7.7 2.8-1.8 2 1.2 2.5 4.8-2.1h4l2 3 3.2-3.2-.8-3.1-2.7 1-.3-4 1.3-2.2h-1.3l-2.1 1.3-1 .8.6 2.7-1.6 1.1-2.3-.2-.5-3.4zm8-6-.7 2 3.7 1.7 2.6-1.6-.1-1.1zm2.8-3.3-2.7 1 .2 1.4 6-.4-.3-1.4zm12.8 3.3-.4 1.4-1 1.3v2l3.7-.6 3.8 3.3h1.4v-3.3l-3.8-4.3zm9.8 3.9 1.5 1.7-1.3 2.3 1 2.6 4.2-2.4v-1.7l-2.5-2.9zm5.6-4.4.1 3h5.2l1.4 1.2-.2 1.3-4.6.6 3.2 4.5 4.4.7 6.2-2.7-8.8-13.3-2.7 1.7.2 2.4-3.1-1.2zm-44.7 21.8-7.3 1.9-4.2 3.7.4 4 7.6 2.3-1.7 4-5.5-3.6-1.6 3 3.7 2.4-.2 4 5.5 1.6 6.7-.3 1.2-2.2 5 5.6 3.4-1.1.6-3.9 2.5 1.7.4-3.8-3.1-2 .2-12.1-2.7-2.1-2.9 3.8zm23.4 8.5-2.5-1.2-1.3 1.8 2.6 4.2.2 4 5.8-3.4v-5l2-2.2-2-1.5H232zm12.2-1.8-4 3.3 1 4h2.5l1.1-2 1.7 1.7 1.8-.2 4.6-3.9zm-.3-6.3-1 1.9 4.2 1.5 1.2-1.7zm-2.5-7.4-4.3.6-2.4 2.3 4.6.2-1.4 3.5 1 1.5 1.3-.2 3.3-5.2zm7.3-1.3-2.3.7.3 3.1 3.9 2.5.2 2-1.2 1.1.6 3.9 14.7 4.8 4 1.4 4.1-3.5-4.8-3.9-4.4 1.2-6.1-.6-2.3-2.3-.6-6.4-3.8-2zm12 20-4.2-.3-5 1.9-2.7 3.7.8 10 8.3.4 7.8 3.9 5.6 6.3 4.2-.2-1.2 6-3.8 6.4-4.2 2-3-.7-1.6-1.3-2.3 3 1 3.2 3.2.2 4-2 3.5 9 8.6 5.5 6-7.5-5-8.1 2.9-3.3 4 6.7 7.3-6.3-1.4-3-5 1.6-3.4-9.4 3.2-5.4-6.5-7-3.6 2.5-3.5-7.5-7.2 1-2-9.1-5.9 4-.6 5h-3.2l.4-4.4zM262 274v1.7l-4.2 1 1.2 2 4.7 1.9 5.4.5 3.8 2.8 3.9-2.2-2.7-2.7h3.4l2.1-2.3 5.2-.8v-1.1l-2.9-2 .4-2 8 1.3 12-4.7-4.5-1.3 1.2-1.6h9.2l1.5-1.5-18.6-6.6-4.4-1.5-4.8 3.5-5.3-4.5-3-.2-.5 3.7-3.6-3.3-4.2 1.4.7 2 6.3 1.4-.3 3.1 3.4 2.2 8.5-2.2.1 3-6.9 3.2-4.2-3.3-3.8.4 3.8 5.4-1.9 1-2.9-2.5-2 1.3 1.8 3.7h3.3l-.8 3.5-2.6-.4-3.5-3.7zm-17 53.2-3.7 4.6-.2 5 3.2-1.8h3.8l2.8 2.5 2.5-2zm44.5 59.8-9.2 8.7 1 2.1 11.1 4.1 1.6-2.7-.9-4.6-3.6.4-2.1-2.3 3.4-3.4zM438 546.6l9-.2 1.7 2.6v1.9l.6.6h4.5l1.2-2.5h1.8l.8.7h2.5l.7 8.7 4.3.1v.7l11.5 5.2.5 1h2.4l-.2-3.6-4.4-2.1.3-2.8 1.9-4.4 4.3-.1-3.7-12.2V535l5.9-9.2v-1.2l-.8-.5v-2.5h-1l-1.1-1.4-17.6-.8-3.3 3.1-5.2-3.5-1.9 1.2-1.3 11.3-3.4 2.6-1 2.3.2 3.4-6 4.9-1.6-.8.2 1z"/><path d="m443.5 519.2 4 4.4 1.6-2h2.5l.5-2 2.5-1.5 5.2 3.5 3-3 11.6.6-10.8-11.1 1.5-.9.2-2-2.5-1.1h-3.6l-5.7 5.7-.2 2.4-4.6-.2-.1 1-3-.3-2.7 5.1z"/><path d="M439.4 526.6v1.2l4.1.1.1 10.7H440l-2.2-1.8-1.7 1v.5l.8.4.2 2.2-2.3 2 .5 1 2.6-2h1.2l.4 1.2 1.7.7 5.2-4.4V536l1-2.6 3.4-2.5 1-8.5h-2.5l-2.8 3.8zm-15.6-123.8-3.8 4v.4l1.6-.4 1.4 1.9 2.4-.8 1.6 1.2.7-.4 2-3.1-.5-.5h-2l-1-2zm-35.3 118.8 3.7-2.7 4.6-.8 4.7 1-2.4-3.6-.7-2.2.7-6.5-4.2.2-2-1.8h-4l-1.8.4.2 4.4-1 .4-1.2 2.2 3 3.6zM261.4 683.5l-3.7 8.1 6.4.7v-5.4zm-1.3-1.3-2.7 3.1-.4 3.6-5.3-3-5.7-8.3-1.7-2.9 2.3-3-.2-3.9-2.7-1-2.1-1.7.4-2.1 2.8-.8.6-12.4-4.4-2.5-2.8-64.4.7-1.3 5.6 12.8h1.8l.6 2.1-2.4 2.9-2.7 15.4 3.8 12-1.7 9 6.3 26.4.6 15.5 4.5 5.2zm-18.4-32.4-1.1 1.7.6 3h1l.6-3.7z"/><path d="m428 519.4 2.8 2.6-.2 4 15.3-.4 1.2-1.4-4.3-4.7-.7-1.7 2.8-5.2-1.9-3.5-1.6-.8v-1.8l1.8-1.2.1-5.5-1.4-.1v2.8l-6.4 12-4 .2-2.7 1.9z"/><path d="m594.5 386.1-3 7.5-4.1-.2-4.4 9.5 3.7 4.7-7.6 10.6-3.9-.7-2.6 3.3.6 2 3 .2 1.6 3.5 3 .6 9.4 12v6.2l4.6 2.8 5-.8 6.3 3.7 7.6 2.2 3.7-.5 4-.4 8.8-5.7 2.8.4 1 2.6 2.5.7 3.2 4.8-2.1 4.9 1.3 3.2 3.7 1.4.6 3.9 4.4.4.6-2 6.3-3.2 4 .2 4.5 5 3-1.3 2 .2.9 2.4 1.5.3 2.1-3.1 8.7-3.3 7.9-9.4 2.6-9-.3-5.9-3.2-.6 2-2.2-.5-3.5-8.2-8.3V421l2.3-3 2.4-1.2.2-2.4h-6l-1.1 3.3-2.9-.6-3.4-3.8 2.1-5.7 3-3.2 2.9.2-.4 5 1.5 1.3 3.7-3.7 1.3-.2-.4-2.9 3.4-4.1 2.6.2 1.6-4.8 1.7-1 .2-3-1.7-1.8-.2-4.7 3.4-.2-.2-12.2-2.4 1.4-.8 3.1h-4l-11.2-6.4-8.2-9.8h-8.3l-2 1.7 2.6 6.2-1 5.7-3.3 1.4-1.8-.1-.2 5.7 2 .4 3.4-1.5 4.6 2.2v2.2l-3.3.2-2.6 5.7-2.3.2-8.5 11.1-9 4-6 .4-4.1-2.8-5.9 3-6.3-2-1.5-4-10.7-.7-5.6-9.2h-2.4l-2-4.3z" class="mainland"/><path d="m671.8 472.7-2 .5-1.5 1.9 1.2 2.4 1.8.1 2-1.8.6-2.4zm-437.5 25.6-1.8-.2-11.7 9.7-1.3 3.4-1.6.2.7 7.5-4 10 4.4 3.9 5.7.3 4 5.8 5.6.2-.1 4.3h2l2.4-8-2.1-2.6.5-5 4.5-.4-.6-11.7-10-3.2-2.3-6.3zm-31.3 4.4 1.1 2.4 1 1.3-1.3 3.9-2.5-1.8-4.1-3.7v-2.5zm2.9-32.9v1.1l4.6.1 2.2-1.2.3.9 4.5 1 4 3.7-.9 1.3.2 1.4 3.3.9 3.4-1.6 1.5-1.5-2.2-1-11.2-6.6-4-.5zM350 490.3l-1.6 1 1.1.8 1.5-.7zm4 1.9-1 1 .7 1.3 1.9-.8zm-2.3 2.6-1.4.9 1.5 2 1.2-.7zm132.9-57 1 .8-3.3 3h-1.5l-1.2-.8.1-1.5 2.4-.2zM437.2 399h3.8l2 1.4 3.9-3.2-3.7-2.6-3.7-1.8-2.5.5-3.3 2.2z"/><path d="m422.3 384.2 3-.5v-2.1l2.6-.5 1.4 1.5 1.5.1 2.4-1 2 .6 1.9 1.6.2 6 1.9 2.4-2.4.3-4 2.5.3.9 3.6 3.3-.3 1.7-3.3 1.7h-3l-.8 1.7h-1.6l-.8-1.7-2.7-.7-.1-2.8-1.4-.7.1-1.9-.4-1.3-2-1.8.4-2.9 2.2-1zm4.8-14.2-3.6 4v2.6l1.5 4.3 2.6-.5-.3-3.5 1.7-2v-1.5l-1.2-3.2zm1.9 7.4-1 .2v1.6l1 .8 1-.2-.2-1.5zm3.3-1.6-1 .3-1 1 .5 1.9 1.2.5-1.3.5-.2.7h2l.6-1-.8-.4.2-1 1-1.2-.3-1zm76.7 124-.5 2.9h3.4v-4.3l-1.2-.8zm-252.8-14.4-.7 1.6.9 1.2 1.1-1zm-13.8-3.9-4.5-3-3-1-.5 5.5h.6l.7 1.5 1-1.2 3-.8 2.4.6zm182.2-45.7-3.5-1.2-14.7 2.7-3.2 2.5 2 10-5.9.3-3.5 5.6-8.3 2v4.1l27.5 21 4.7.5 15.7-12.2-1.6-2-3-.4-1.7-3v-12.2l-1.2-1.2.2-3.1-3.1-3.2-.4-3.3 1.4-1-.6-3.6z"/><path d="m214 529.4-4.1 2.6-.3 3.7-.8 1.3 2.6 2.4-1.2 1.3.3 3 4.6 1.2 7-8.3v-2.9l-3.4-.2z" class="mainland"/><path d="m183.5 531.4-.5 2.4-1 1 .7 1.3 1.7-.7.9-1.5-.6-1.5z"/><path d="m462.6 363.3-4.9-.2-3 1.9v1.4l1.9 1.9 6.2 1z" class="mainland"/><path d="m452.2 364-1.3.5 1.3.2.6.7.7-.9-.7-1.2zm.6 1.8-1.9.8-.6 1.1.6.8 2.4-1 1.1-.7zm13.4 83.4h2.3l4.5 1.3h2.1l2.6-2.1h1.3l2.2 1.2h3.4l1.8 5.2.5 1.6.5 2.5-.9.6-1.4-.7-1.7-5.5-1.6-.1v1.9l1 3.2 8 10 .2 4.3-2.3 2.8-22.2-.3zm30 44.7-.2-5.1 3.4-4 1 .7 1.6 5.6 8.1 6-1.4 1.9-6-5.1z"/><path d="M402.6 416.3h-11l-2.3-1-1 .1-1.3 2.7.4 2.8 4.2.4.6 1.7-1.9 10.4.1 1.8 3 1.6 3.4.3 7-1.7 3.3-4.3v-4.3l6-5.4.3-2.4H408z" class="mainland"/><path d="m374.3 458.4-1.5 1 .7.6zm-5.3.2-1.9.5 1 1.4h1.4zm-4.4-1.4-1.2 1.2 1.6 1.4 1-2.1zm49-30.3-1.4.4.3 1.3h2l.8-1zm76.4 81.7 6.3-14h6.2l5.6 4.9-.4 4h4.3l.4 2.3 7 4.2 4.2.2-8.1 8.7-11.2 3.5h-2.8l-5-4.2-1.9-.9-3.8-5.5h-2.5l-.2-2.6zm-37-168.4 1.9.8 1 2-1 1.5-5.6 6-1 3.3 1.3 4.6 4.3 3.2 5.7-2.7 4.6-.7 4.3-6.8-3.2-7.5-3-7.2.5-4.7-2-.3-.4-3.4-2.6-4.1-2.8 2-1.1 4.5-3-1.8-4.2-1-1 1 1.7 1.5h2.9l2.3 3.7zM281.2 678.4l-2.3-.3-2.2 1.6 1.6 1.7zm2.3-1.1-.8 2.4-2.1 1.9v.6l3.7-1.4 1.6-2z"/><path d="m413 393.6-2 .5-3.8 4.1h-1.1l-1.5-1-1 .2-.8 2.4-5.6.2.2 1.2 3.8 2.6 4.4 3.5v4.2l-2.4 4.2 5.1 2.5 5.2.1 1.6-1.8h3.3l1 .9 3.2-.2 1.7-2.2-2.1-2.5-.2-1.7.5-1.7-1.1-1.6-1.8.6-.3-1.4 4-4.5v-2.7l-2.3-.8-1.4-1z" class="mainland"/><path d="m276.2 517.3 5 3.1-2.6 5.3-1 1.2-2.8-1.6v-5.7zM540 586.9l-2 .2v1.7l1.2.3 2-1zm-23-24.2.6 1.4h1l.6-1.8zm-258-72.9-1 .9.7 1.4 1.3-.4zM428 418l-1.6 1.7-.2 1.6 1.4.8h.5l.3-2.3zm-174 66-1.2.6.5 1.2 1.5-1-.3-.4zm181.4 42.6v2.2l-5-.1-3 5.8 7 7.6 1.8-1.4v-1.5l-1.2-.6v-1l2.7-1.7 2.4 1.8h2.6v-9l-4.2-.2v-2z"/><path d="m400.6 368-1.6 2.4.7 1h3.6v1.5l-1 1.3.7 3.4 2 4 1.6 3.6 2.6 1 1 2v1.7l-1.7 1-.1.7 1.1.7-1 1.2-2.2 1-4.3-.5-6.6 3-2.2-1 6.3-3.7-.8-.5-3.3-.3 2-3 .4-2.6 2.7-.3-.5-5-3.2-.1-1-1.2.2-3.6-1.9.1 2-6.4 3.4-2.5z" class="mainland"/><path d="m394 378.7-2.9.3-.1 2.6 1.9 1.3 2-.5.8-1.5zm101.1 36.9 2.9 3.7 3.5 1.6h2.2l3.7-1 1-1.5-11-4zM399 513.2l1 2.3 2.6 4 1.4-.1 3.8-2.2-.3-12.4-3-.8h-4z"/><path d="m292.6 282.4-1.2 1.9 2.1 2-1 2.2 3.1 4 3.8-1.2 5-.4 5.6 6 3.7 10.2-3 6.3 4.2-.7 2.4 1.4.2 3-5.2.3 2.9 2.8 3.5.7-7.8 10.4-1 6.3 1.7 5.2-1.1 3 2 6.6 4 4.5 1.2-.2 2.6-.7.3 3.7 1.6 2.4 3-.3 2.4-8.7 7-8.7 10.6-4.2 6.6-8.2 3 1.4h6.4l5.2-5.2 6.3-2.6.7-4-4-3.5-3.5-1.1-1.9-5 4.5-2.6 7 3.8 2.4-2.6-3.7-2.1 8-10.8-1.5-4.7-3.7-.3 1.4-4.2 4.7-2.1 9.6-8.5-2.8-3-10.8 1-5.7 5.6 3.3-7.3-3.7-1-2.1 3.8-3-2.6-8.6 1 2.4-3.8 13.9-.5-3.6-4.7-15-2.8-6.1 1 .2 3-6.3-2.1.2-2.1-4.5 1-.9 2.3 4.7 1.6-5 3.5-3.5-4-4.9-1.4-.7 3.8h-5l-1.8-4-7.8-1.2-4.2 2.1-.2 2.9-5.4-.7-3.3 1.4.2 3.3v1.6l-6.1 1.2-2.8-1.9-2 3 2.9 3.1 5.9-.7.4 1.9-4.4 2.1z" class="mainland"/><path d="m311.4 319 1.4 2.2-.7 2.6h-1.4l-1.9-2.2.5-1.6zm58.8-5.8 4 1.2-.3 3.3-4.2-2.2-1-1.1zM366.7 497v1l5.9-.1.3-1-.1-.8-1.8.7zm3.1 8.3 2.6 4 3.4-3h3.5l3 3.8 2.4 1.6 1-1.8.8-.4v-4l-1.7-4.8-5 .6-6.3-.5v1.6zm57.4 16.8-.4 1.7 1.2.7 1.1-.9-.4-1.7zm3.6 4.6v1.2l3.8.2v-1.4z"/><path d="M453 427.2v1.2l4 2 1.8.7-1 1-2.2.3-.3 1 .7 1.7 2.5 1.4h1.1l.2-3 1.6-1.9-4.5-5.3.6-1.7h1l1.7 1.2 1-.5.3-1.8 3.7.5 1.2-3.2-2 1.4-5.7-.2-3.8 2z" class="mainland"/><path d="M461.7 438.4h1.4l.6 1h2l1.4-.5.5.5-1 1.2-4 .1-.7-1-.7-.4zm-278.2 52.7 5 3.8 5.3-6.5-1-1.3h-1.7v-3.8l-1.3-.8-4 1.2 1.5 3.5zm184.7 11.3 1.2 2.4 3.4-3v-.9l-4-.5zm-106.8 8.3 6.2 5.6-2.4 2.9-.2 1.7 3.2 3.3v3.3l-5.7 2.1-3.4-4.6.7-5.5-1.5-4zm-67-22 8-.3 2.4 2.9-1.5-.4-2.9.1-3.7 3.5-1.6 3.6-1-.6v-3.9l-2.3-1.5zm249-80.9-3 2.5h-3.1l-.4 2.2 1.4.4.7-1 1.1.9 1 3.1 6 2.9.6-.7-6.2-6.4.7-1.2 5.9-.2.6-1.9-3.9.1zm-211.6 69.4 3 .3-.3 3.6-.3 2-3.5-.3-.6 1-1-.1-.5-2 3.7-.3-.2-2-1.7-.8zM444.4 403l-1 1.6v2.4l1.7.8 4.9.2 6.8-5.8v-1.3l-.7-.4-5 2.3zm195.1 110.6-.2 2 5.8 9.9h1.8l12.2 20.4 4.9.5 2.4-7.1-3.9-2.5-.7-4zm58 27.3 2 2.4-1.3 3.6v.7h2.8l1-9 1 .2 1.7 8.3 1.6.4 1.5-3.5-1.5-5.3-1.3-2.3 4-3-1-1.2-3.7 2.4h-1l-2-2.7.7-1.2 3.1-1.5 4.8 1.4h1.4l3.6-3.4-1.4-1.5-3.4 2.6h-2l-3.3-1.5h-2.3L700 531l-1.7 7zm21.3-16.1-1.6 4 2.5 3.3h.9l1-2.2.7-.8-1.1-1.2-1.6-.6zm5 13-3.5.7-1 1.1.8 1.5 2.3-.9 1.5-.8 2.1 1.7 1-.8-1.8-2zm-57.8 11-2.3 1.7.5 1.3 7.5 1.8 3.9.6 1.6 1.7 4.3.4 2 1.7 2-.4 1.6-1.6-3.1-1.4-2.7-2.3-7.1-1.7zm24.8 7.5-1.9 1 1.1 1.2 2.7-1zm3.2-.8.3 1.7 2 .5.7-1-.8-1.3zm4.7 4.3-2.4.4 2.1 1.7h1.7zm.6-2.8-.5 1 3.9.6 3-1.7-1.8-.5-2.7.8-1-1zm12.5.6-4.4 3.7.4 1 2-.4 2.1-2.1 4.3-.6-.8-1.4zm22.3-25.2-3.6.5-2.3 1.6 1 2 3.9.7v.7l-2.5 2 1.2 4.2 1.2.1 1-4h2l.8 4 9.3 7.7.3 6 3.2 3.5h1.4l.3-21.5-5.4-3.7-5.1 3.4-1.9 1.2-3-2v-6.1zm-43.4-12.9-2 7.5-10.8 3.7-3.3-3.8-1.6.4 3 11.4 4.4.5 5.9 2.2v2.2l2.6-.5 4-5.4v-4.4l2.2-4.5 2.4.5-3-6.2-.4-4zM395 383l-.9 5.3-7 2.5H385l-1.5-1v-1l3.4-2.3-1-1.9.2-2.7 3 .1 1.4-3.2-.1 2.9 2.3 1.8zm91.4 61.9-1.4 4.3 1.8 5.3 2-7.7v-1.6zM595 509.7l4-2 2.3-8.5v-10.4l13.4-14.5v-3.5l2.7-1v-4l-3-5.9 1.7-3 3.7 3.4 4.8.2v2l-1.5 1.5.3.9 2.6.1.5 2.9h.8l2-3.4.9-9 3.2-2.4v-3l-1.2-2.6h-2l-8 5.2.5 3.4h-5.6l-2-2.5-1 .2.4 3.3-12.1-.8-7.5-3.4-.4-4-5-3.2v-6.3l-3.5-4-7.8.8.8 3.4 3.9 3.1-6.7 13.7-4.4.3-.8 1.7 4.4 4-.2 4.1h-4.5l-.5 2 3.8-.2v1.7l-2.6 1.4 1.7 3.2 3.3 1 2-1.4 1-2.7 1.2-.6 1.4 1.4-.5 3.5-1 1.6.3 2.8zm-92.2-76.1-1.4 6.7-5.5 4.7.3 2.1 5.5.4 8.7 7h4.8l.1-1.7 1.8-1.9 2.5 1.4.3-.3-4.8-6.4-2.3-.1-3-4 .6-2.8 1-.1.3-1.3-4.2-4.3z"/><path d="m507.4 427.5-1 1.1v1.8l1.4 1.8 4.6 5-.7 2.1h-.8l-.4 2 2.6 3.4 2.5.3 4.8 6.7 2.8.2 2 1.5.2 3 8.4 5h3.1l2-1.6 2.4-.2 1.4 3.3 9.1 1.3.3-3.4 3-1 .1-1.2-2.4-3.3-5.3-4.3 2.8-2.5-.2-1.2-3.5-.5-1.5-11.9-.2-2.7-9.5-3.6-4.2 1-2.4 2.8-2-.1-.7.5-4.6-.3-5.9-4.3-2.2-2.4-1 .3-1.8 2zm-141.1-87-1.7-1-2.3 1.5-2 1.8v1l2.6.4-.1 1.8-1 .9.3.6 2.5.1v3l3.7.6 2.1 1.2 2.5.1 4.2-2 3.2-4.3v-2.9l-2-1.7-1.6-1.4-.7.6-1.1 1.4-1.3-.1-1.3-1.4-1.6.1-2.4 2-1.4 1.5-.8-.6v-1.8l.7-.5z"/><path d="m423.2 409.4-.5 1.3.1 1.5 2.1 2.4h3.3l7.1 8.3 4.5 1.3 2.7 2.5.6 5.6 1.4-.8 1.2-3-.3-2.3 2.1-.2.3-1.3-5.9-2.8-5.6-5.5-2.2-3.3-.6-3.2 2.9-.6-.8-2.1-1.7-1.5h-1.5l-2.1.5-2 2.8-1.2.8-1.9-1.1z" class="mainland"/><path d="m440.7 431.9-1.3-.7-4.3.7.2 1.2 3.8 1.9.6.6 1 .2zm-12.9-8.3-2.3 1.1.3 4.5 1.9.3 1.3-1.3V424zm-206.3 57.2-3 .8v.8l1.8 1h1.8l1.2-1.3zm268-33.5-2.2 7.4v1.1h3.3l3.7-3.3.1-1.3-1.5-1.5 2.7-2.3-.4-2.1-.7.2-2.3 1.6zm219.8-21.1-1.4 1.4.6 2h1.2l.9 4.4 1 1.1 1.7-1.6.1-4.7-2-2.2zm7.4-4-2.7 2.1-.6 2.8 1.9 1.2 2.6-2.7.3-3.1zm-3-4.2-4.3 4.9v2.3l2.6-.3 4-3.6 2.8-.5.7.8v2.3l.7 1.3h1.2l1.8-2.2.7-2.8h3.6l3.5-4.3-1.8-6.9-.9-3.6 1.8-1.5-4-6.3-1-.7-2 .7-.4 2.6v2l1 1.3.3 5.5-2.5 3.1-1.5-.9-1.2 2.6-.2 2.4.9 1.4-.6 1.1-1.9-1.6h-1.3l-1.2.7zm7-37.6-1.3 1.2.7 2.5 1.1 1.1v3.9l-1.5.5-1.2 2.6 3.4 4.7 2.2-.8.4-1.1-2.4-2.2 1.5-2 1.6.3 3.4 2.3.4-2.5 1.6-3 2.3-2.3-2.5-1.2-1-1.8-1.1.9-1.1 1.3-2.3-.5-2.4-1.6zm12.5-2.6-2.3 3.3.1 1.5 1.2-.5 2.7-3.4zm3-4.7-.8 2.2.1 1.5 1.4-1 1.3-2.6v-1zM491.1 521.4l2.3 4.4-2.7 5.8-.4 1.8 13.8 8.5 4.3-6.7-2.2-1.8v-8.8l2.7-3-4.4 1.5h-3.2l-5.1-4.3-1.6-.7-3 .3-.5.9zm74.4-110.1-.3 2.2.2 1.4 7.5 2.5-6.6 2.6-.7-.6-1.4 1v.4l.8.4 4.6.1 2.4-.7 3-3.8 3.8.6 4.5-6.3-12.2-1.6-1.7 4-2-2.2zM655 498l3.6 3.8 6.6-5 .6-7.6-3.4 2.3-1.8-1-2.4-.3-1.3-1-.7.1-1.7 2.9.3 1.3 1.7 1-.2 2.7zm-140.6 62 .4 1.3 1.7.3.6-1.7zm173.4-153 1.5.7.5 5.6 3.2.2 3-3.5-1-1v-3.7l2.8-3.3-1.4-2.5.9-1 .5-2.6-1.6-.7-1.3.7-1.7 5-2.7-.2-3.1 3.7zm8.6 3.4 5.4 4.4.9 4.2-.2 2.3-2.6 3h-2.2l-2.6-5.5-1-2.6 1-.8-.2-1-1.2-.7zm-177.2 42.4-2-1-1.3 1.3.2 2.7 3 1.2z"/><path d="m513.5 402.2 3.5-1.5 4-.2.3 6H519l-1.8 3 2.3 3.8 3.4 2 .3 2.1 1.3-.4 1.1-1.4 2 .5 1 1.9h2.4v-2.5l-1.5-4.4-.7-3.6 4.3-1.9 6 1 3.6 3.7 8.3-.8 4.7 6.6 5.4.2 1.5-2.4 2-.5.2-2.7 2.9-.1 1.5 1.7 1.5-3.5 13 1.8 2.1-3-3.7-4.5 5-10.7 3.9.3 2.7-6.6-5.4-.6-3.2-3-8.6 1-11.1-10.7-4 3.4-11.9-5.4L535 378l-.4 5 3.4 4-6.6 3.8-8.7-.2-1.8-2.6-6.7-.4-6.5 4.1v5.7zm137.2 64.2-2 1-1.8 5.1 3 3.7-.6 4.1.5.2 4.9-2.3 6.4 7.2-.1 4.6 1.4.7 3.5-2.8-.3-2.2-10-9.6v-1.4l1.3-1-.9-2.4-4.2-.6zM487.1 440v1.7l-.6 2.6 2.4.2.2-3.6zm-228.4 53.3-.6 1.3 1 1 1.3-.6zm344.6 12.1.2 2.4.2 1.7-1.3.2.7 3.8 1.9 1.1 3-1.7-.9-4 .2-1.6-2.7-2.5zM378.2 515l9.5 6.4-.2-4.8-3-3.4-2.7-2.5zm92.7 91.8 2.6-2h1.3l1.5 2-.2 1.8-2.5 1v.7l-2.8-.2-.7-2zm-18.8-231.6-2.1.4.2 2 3.3.3 1.3 1 .3 1.8 1 1.5 3.1-.2 3-3.7-.2-2.2-5.5-.9zm-31.7 22.4.8.7h.9l.2-1.7-.3-1-1.2.6z"/><path d="m462.8 370-6.3-1-1.1 2.8-1.9.5-1-1.2-.9-1.8-1 .8-.6 3.1v1.7l2.2-.4 4.7.1 5.6 1 2.3-.6-.2-2.5zM430 453.5l1.3-.2.4-3.1h.7l2.7-4.5 6.8 2 1.9 2.8 6.7 3 3.5-1.4-.4-1.5-1.5-1.4.2-1 2.5-2.1h4.8l2 2.4 3.8.6.5 31.9-2.9-.1-17.6-9.2-2 1-7.2-1.7-2-2.6-2.8-.4-1.5-2.6zm-27.5-13.6h-10l-2 4.3-4.4 2.2-3.8 10-7.2 4.4-10.2 16.8 10-.2.4-5h2.5v-6.7h8.8l.2-8.6 8.5-2 3.5-5.7 5.5-.2zm62.6-38.5 2.7 4.1-.2 2.3h1l2.2-3.8-2.7-3.4-1.6-.6zm-15.4 15.3-1.3 1.8.4 1 1.5.3 1.2-1.6zM527 561.5l-1.9 4.3-3.1 5.6-5.5.4-2.4 2.8.4 8.5-3.4 4 .4 6.7 2.9 3.3 3.4-.4 3.4-2.5-.8-4 8-13.6-1.7-1.7 1.6-3.4 1.7.6.6-1.4-1.6-6.7-1-2.8zM456.6 419l-2.9.9.2 2.5.7.8 3.4-1.6zm-79 75.8 2.6-1.8H395l-3.4-23.9h4l18.8 14.3 2.6.4-1 8-11.9 1.1-9.1 6.9-1.7 4.6-6.4.3-1.6-4.7-4.9.4.2-1.6zm267.9 6.8-2.4-3.8 1.8-2.5-1.7-3-1.5-.3-.3-5-2.3-4.5-.7 1-1.5 2.7-2 .3-1-1.3-.4-3.4-1.5-2.8-5.9-5.5 1.4-1 .3-4 2.2-3.7 1-9 3-2.1.1-3.3 2 .6 2.9 4.3-2.2 4.7 1.5 3.7 3.6 1.4.7 4 4.9.8-1.4 2.3-6.2 2.5-.6 4 4.5 5.8.2 3.1-1 1v1l3.4 5 .1 5.2zm-48.1-115.4 5-6.7 6.1 2.8 4.1 1.1 5-4.6-3.4-2.5 2.3-3.2 6.7 2.4 2.3 3.8 4.2.1 2.2-1.6 4.5-.2 1 1.7 7.5.4 4.8-4.9 6.6.7-.4 6.6 2.9.7 3.5-1.6 3.7 1.8v1h-2.8l-2.8 6-2.2.2-8.5 11.1-8.8 3.9-5.4.4-4.5-3-5.8 3.2-5.7-1.8-1.6-4.1-10.9-.8-5.5-9.4-2.7-.2z"/><path d="m365 478.3 1.9 2.4-.4 10.7 2.7-2 2-.4 2.7 1 3.2 4.3 2.9-2 14.3-.1-3.5-23.9h3.7l-7-5.4v3.5h-9v6.7H376l-.4 5zm75.8-40-1.4.3v1.6l1.3.5.6-.5zM544.9 584l-1.3 1.7.2 1.9 2.8-2.3zm37.5-67.6.3 2.2 1.4.6.3-2zm1.8 4.8v2.7l1 .6.9-1.9zm.3 5.4-1 1 1.1.8 1.4-.9zM488 567l2.7 2.9-.1 3.6.5 1.5 3.6-3.9-.4-4.9-2-1.4-1.6-8.6-3-.1 1.4 6.2zM133.8 434l4.2 13-2 1.1.3 2.6 3.7 2.9v5.2l4.5 4.3-2-12.8-2.5-8.5.6-5.9 2.2.2.8 2-.8 5 11.2 22v7.8l9 10.7 10 4.6 4.1-2.4 5.9 4.8 3.4-3.5-1.5-4 5-1.5 1.5 1 1.5-1.6h2.4l4.3-7.6-2.1-2-8.5 2-2 5.6-4.9.9-5.8-2.4-2.6-8.3 2-10.4-4-2.5-2-10-1.6-.7-2.9 3-3.4-1.8-1.3-6.7-13.3-1.4-6.8-5.2z"/><path d="m648.4 511.8 1.7 3.9.4 5 2.3 3.7 5.1 3 1-.7 1.5-.3-.2-2-1.9-4.4-2.7-5.8-.2 1-3.3-.1-2.3-3.3z" class="mainland"/><path d="m675.5 526.9 2.6 3 10-3.5 2-7.6 4.5-.3 4-3-5.2-3.8-1.2-2.1-2.6 4.8 1 2.7-1.7 2.3-3-.7-7.2 5.3.1 3zm-192.7 69.5 2.3 1.9 5.5-3.3.9-5v-8.2l8.8-7.2h1.5l5.3-5-.8-10.6-13.8 1.8.5 3.3 2 1.8.6 5.7-4.8 4.7-1.1-2.6.2-3.5-2.8-3-6.7 3.2 6.3 3.2.2 9.2-4.2 6.2zm-38.6 7.5 3 .2 1.6 1.7h4l1-11.4v-7.5l2.6-.5 1-8 6.6-.1 2.3-2h-4l-5.3.6-5.7-2h-16.1l.4 4.5 5.4 8-1 4v2.1zm354.5-1.3-.3 1.5 4 5.6 2.1 1 .3-2.3zM413.4 500.2h2.2l2-3 3.3-.7 3.6 2.2 7.6.2 5.8-2.4 2.2-1.9.2-2.4 4-4.2 1.2-9-2.7-5.7-7-1.7L420 484l-2.3-.2-1 8.6-8 .8z"/><path d="m414 515.2 3.4.1 4 4.6 2 .5 1.6-.7 2.4-.3.8-3.3 3.2-2.2 3.5-.1 6.4-11.8-.1-2.6-3-2.3-5.9 2.6-7.9-.1-3.8-2.4-2.6.6-1.4 2.4-.2 6.9-2.2 3.2zm-210.8-23.6 2 .4v3.9l-2.2 6.3-6-.6-1.3-3 1.8-3.7 3.3-3.1zm218.2-107-4 1.9.9.8v1.9l-.8-.2-.9-1.4-2.2 3.5 3.4.7 1.2 1.3h.7l.4-3 2.2-.9z"/><path d="m460.6 327.4 1.7-1.3-.1-1.4-1.1-.6.1-1.8h1v-1l-4.2-1-6.1.6-.7 2.7-1.4-.5-1-1.6-3 .2-.3 3-1.4.6-.8-1.6-6.4 5.1 1.3 1.5-2.4 1-5.4 10.8-1.9 1.3.2 1 1.9.9-.5 2-3.1-.1-1-1.1-2 2.4-1.3 1-.3 2.2-1.2.6-2.8.7-1.4 4.4 1 7.4 1 3.3 1.3 1.3 2.8-.1 4.2-4 1.6-2.7.4 4 2.7-4.8.2-13.5 2.2-1.3.6-7.5 6.7-9.5 3.2-1.2 1.4-1.7 4.7 1.1 2.4 1.4.8-4 4-2.4z" class="mainland"/><path d="m437 285.8-1.4-1.5-3.1 1.6h-5.8l-1 3.4 3.3 2.8 1.4-.2 2-3.5 1.8 1.3-1.2 2.4-.6 3.6 1.4 2.3 3-5.2 4-4.8-1.5-1.3zm1.8-6.2-2.6 2.4 1.6 2.3h2.7l1.1 1.6 3.4 1.7 3.9-2.3 2.6-2.2-.9-1.9-2.6-1.5-2 1.7-1.3-1.6-1 .1-1.3 2.9-2-2-.2-1.3zm5.8 10.6-2 1.8-1.8 1.4.8 1.4 1.7.5 2.6-1.2 1.3-1.6-1.2-1.8zm150.6 158.6.4 3.7 7 3.1 11.2.9-.5-2.7-7.4-2-6.4-3.9zm209 206.9 1 10.2-1.3 4.7-4.6 3.4.3 4v4.3l1.2 1.5 12.6-10.8v-2.4h-3L806 656zM795 678l2.5 4.6-6.8 6.5-.6 3.4-4.6.6-7.7 7.1-7-3.4-.6-2.5 12.9-5.5zM532.2 481.9l6.4-3.7 1.2-5.4-1.4-.8.5-5.8 1.3-.7 1.3 2 7.7 4.1v2.3l-9.4 13.8-4.3.2zm-326.5 24.8-1.3 4 4.2 1 2.6.6.4-3 2.8-1.5 2.4 1.3 1 1.5h1.2l1-2.9-3.2-1.3-2.3-1.2-2.3 1.5-2.8 1.4-2.8-1zm3.8 34.5-1.7 1.7.2 2.7 14.6 26.7 15.2 9.8 2.4-3.9.5-8.7-1.2-5.4-4.2-7-2.4.8-1.1 1.3-5-5.7 1.3-6.6 5.7-3.7-.5-3.5-5.8-.3-3-5-1.7-.6.1 3-7.4 9-5.6-1.4z"/><path d="m752.1 540.2-.3 21.1 3-.2 4-4.6 3.4.1 2.2 2 .7 6 6.9 3.6 1.7-.7v-2.2l-5.5-4.6-2.7-6.3 2.2-1-1.6-3.5h-3.2l-.8-3.8-8.5-5.7z" class="mainland"/><path d="m778.2 546-.8.2-.5 2.2-1.6 1-4.7.9.1 1.8 5-.3 3.2-2-.2-3.4zm-2.1-5.2-.8 1 4.2 3.8.6 2.1 1-.1.2-2.2-1.2-1.2zm-78.8-44.5-.7 1.4-.4 1.8-4.2 5.2.3 1.1 1.7-.3 5.4-6zm6.7-2v4.3l1.5 1.6.6 3.1 1.6.3.7-1.9-1.2-.9-.4-5.4zm4.5 1.7v3.8l.8 1.5 1.6-1.8-.4-3.4zm1-3.4 1.6 2.1.7 2h1.4l-.2-3.4-1.6-1zm3 7.9.4 2.5-3 2.3-2.3.3-2.6 2.7.1 1.3 2.4-.8 1.7-1 1.4 3.5 2.4 1.7 1-.3 1-1-2-2 1.1-1 1.3 1.1 1-1.5-1-1.8-.1-4.1zM699.1 475l-2.3 1.6-.2 5 3.5 6.7 1.1 1 1.5-1 2.6.3.5 2.3 1.9.1.9-1.2-1.2-1.6-1.4-1.3-3-.3-1.5-2.6 1.8-2.8.1-2.4-1.2-3zm1.1 14.9.7 2.3 1.1.8.9-1.1-1.3-1.8zM553.6 455l2.3 3.4-.2 1.7-3 1.2-.2 2.8h3.4l1.2-1h6.5l5.9 5.2.7-2.5h4.4l.1-3-4.5-4.4 1-2.3 4.6-.4 6.2-12.9-3.5-2.7-1.2-4.5 8.3-.8-5-7-2.5-.7-1.1 1.3-.8.1-5 3.1 1.7 2.7-1.8 2-2.3 8.2-5.5 3.6-.8 3.9zm-96.5-64.8.7 1.3.2 1.5-.6 1.4-1.4 2.6-1.1.5-1.6-.6h-.9l-2.2.9-2.5-.8-4-2.9-4-2-1.6-2.5-.3-5.8 3.1-2.7 4-1.3 1.4-.2.3 1 1.7.7 4.8.1h1.5l2.4 3.7-.6 1.5.2 1.8zM249.3 482l-2.3-.7-1.8 1.1.9 1.1 3.1.5z"/><path d="m387.5 421.7-.5 7.5-1.6 1.4.2.8 1 1.8-.6 2.2 1.1.3 2.7-.3-.2-2.1 1.8-10-.4-1.4z" class="mainland"/><path d="m367.8 443.5-.9 1.2 1 1.2 1.3-.8zm-30.7-16.8L336 428l2.1 1.2.3-1.7zm6.3-.7-1.4 1 1.2.9 1.9-.5zm1 3.3-.7 2 1 1 1-.8zm5.6 3.8-.5 1.2.7.7 2-1.2zm-82.8 151.4 1.9 2-.2 4.4 5.5-.3 4.1 5.3-.3 4.7-2.7 4-5.5.3-.2-2.3 1.5-3.7-5.3-3.4h-4.5l-3.4-3.6 2.5-7zM527.3 463l-.5 3.5 1.4 1 1.2-.1.4-4.4-1-.7zm-69.6-61.7-.2 1.3-5 4.1 4.2 6.2 2.7 1.8h4.8l1.6-1.3 2.1-.3 1.6 1 2.8-3.2-.5-1.6-2.9-.8h-2l.2-2.8-2.6-4zm-5.7 6-1.8 1.3h-.8l-.6 1.8 2 2.5.2 1.9-.9 1.2 3 3.2 3.4-1-.3-4.7z"/><path d="m722 302.2 1.6 5.2 3 .9 3-4.8-1.7-3.3.7-2.9h4.5l-1 2.2.4 8-6.5 16.1.6 3.5-.2 6 12.2 17.7 2.3.6.3-14.4 2.3-2.2-2.6-5.7 2.2-2.4-4.8-6.4-2.6.3-.8-10.5 6.7-1.8.4-3 3.5-1 2 1.8 2.3-9.6 4.2-7 3.2-1.8 2.8.2v-3.2l-4.5-1-6.3-5.2 3-3.5-2.6-5.9 2.2-2.2 2.6 3.5 6.5 2.4 7.2.7.8-3-3.6-3.8 4-5.7-9.3-3.3-2.3 4.9-3-4-17.3-5.9-16.2 2.9-2.4 1.3v1.3l3.4 1.7-.4 4.2-6.3-2.6-13.9 5.4-2.4-5h-9.5l-4.4 4.6L670 263l-14.1 2.8-1.8 4.4 2.2.7-.2 3.3-13.7 1.5.9 4.4-12.6-2.2 3-5.7-12.8-.7 1 6-4 2-3.5-3.4-14.1 2.4-5.5 5-.2 3.1-3.4.3-.5-3.5 11.1-9.7v-6.5l-7.2-2-9.3 3-4-3.9h-1.7l-2.1 4.4 1.7 2-12.4 6.7-10.6 8.1-6.5 9v3.7l7 2.9-3.6 2.6-7.3-2.6-3 2.6-4.6-5.3-1 2 5 15.8 1.4.4 3.5-1.7 1.7 1.3v2.8l-3.3-1.3-2 1.5 1.4 2.9-1.1 7.4-6.7.7-.5-2.4 4-2.4.8-6.6-4.3-5.7-1.6-9.9-6.9-1-.7 3.5 1.4 1.7-2.9 2.4 1.1 6.6 4.1 1.7 1 4.9-4.2-2.7-10.7-2-1.3 3.6-8.4 3-1.3-2.2-11.1 6.2-.2 4.1-4.4.7 1.3-3v-3.1L488 326l-2.9 1.1 2.4 4.6 1.8 3v2.5l-3.3-.7-.6-.6-3.3 3.5 1.7 3-7.4-.2 2.4 3-.6 1.4h-4l-2.7-2-.7-5.4-4.6-1.8v-2.2l9.6 2 5.2.4 2.2-3.3-2-3.5-13.9-5.4-4.8 1.2-1.6 1.4.5 3.2 2 .4-.4 5 6.3 14.9-4.6 7.2-.3 1.6 2.3 1.6-2 1.4H463l.3 6.4 2 2.7v2.6l2.4.2 3.7 1.5 4 5.4v1.4l-1.3 2.2 3-.1 2.9.8 3.9 5.5 9.5.9-.4 6.5-3.3 2.9.7 1-3.2 3.6-1 3.3 2 2.8 6.3 2.2 2.7-1.5 16.7 6.3.6-1.8-3.4-3.2v-4.2l-2.2-.7.4-3.5 3.5-4.1-6.2-4.7.4-6.5 6.7-4.4 7.8.5 1.3 2.4 8 .4 5.9-3.2-3-3.3.6-6.2 15.2-7.4 11.7 5.3 4-3.5 11.4 11 8.7-1 3 3.1 8.3.9 5.4-7.5 7 3.1 3.7.7 3.7-3.3-3.3-2.2 2.8-4.4 8 2.6 1.8 3.5 3.5.3 2.2-1.6 5.8-.2.7 1.5 6.7.5 4.6-4.8 9.3 1 2.8-1 .9-5.3-2.8-6.3 2.8-2.4h9l8.4 10 10.8 6.2h3.3l.4-2.7 4-2.4.4 14.2-3.5.3v3.5l2 2.4-.4 3.1 1.4.6.9-2.2 1.3.4.9 1 3.9-1 3.9-11.3.4-14.3-5-11.4-6.3-7.6-3 .4v2.4l-7.4-2.8 2.8-6.1 2.4-16.2 10-3 4.8-3.1h5.2l-1.3 1.7 1.3 2.2 4.5-4.8 2.7.2-.5-2.8-4.1-1 2.8-10.2z" class="mainland"/><path d="m450.1 378.3-1.3 2.4h5.7l-.3-1.3-.7-.9zm291-25-1 1.3v2h1l1.7-3zm35.7-81-2 1.3-.5 1.7 1 1.1 2-.7 2.3.7 1.2.4-.2-4zm-288.3.3 1.5.6-1 1.8v2.6l-2.2 1.3h-2.4l-1.4-1.6.2-1.8 1-1.4h2.1zm5.7-1.6v1.8l1.5 1.2 2-.1 1.9-1.7V271h-1.7l-1.3.4-1-1.2zm8.5.2 1 2.2 2.1.1 1.5-.5-.7-2.1-2-.5zm8.5-3-1.7-.3-1.5 1.5.8 1.3.4 2.1 2-1.5.4-1.6zm9 15.9-.4 2-3.4 3-7.3 1.7-6 9.9-1 2.9 6 1.5.8-3.6 1.8-5.6 4.6-2.4 3.9-3 2.8-1.2h1.5v-4zM501 305.9l4 .5 1.4 4.6 3.4 3.6-1.2 2.4h-2l-2-2.2-4.3-.2-1.8-2.4v-1.6l2.7-.8zm62.9-51-2-1.3h-2.2l-.5 1.4-2.3 1.3-1.8.6-.3 1.8 4.1.3zm4.6.4-1 2.2-2.2-.1-3.2 2.4-1 3h2.2l1.1-2 2.9 2.1 2.6-1.2 2-1.6-.8-2.6-1-1.8zm4.3 1.6 1 4.2 1.7 4 1.8-3.2 3.4-.8V259l-2.3-1.7zm81.7-6.7 2.3 2 1.6-.7.5-2.8-3.4-2.3-2.2 1.4-5.4.5v2.5H642v4l6.7 5 1.8-1.2-.4-3.5 4.3-1.1-1-1.7-1.5-1.5zm6.2-2.4 1.5 3 6-.7 1.7-2.2-.4-1.8-1.7-.7-1.5 1.2-4.5 1zm-.4 11.5-3-.8-1.8 1.8-.8 2.6 4.1-.4 3.1-1.6zm78-17-2.6-.7-2.9 1-1.4 2.2 1.8 2.5 4.8-2.2 1-1zm.9 116v3.7l1.1.4.8-1.3v-2.9zm-33.9-13.2v5.3l6.7 10.3 2.4 9 4.2 8 1.6.6 1.4-1.2.7-1.9-6-6.6.1-3.4 1.3-.5.4-2-11.8-16.8zm46.7-16.6-1.7.2 1 1.4 2 1.4.7-.6zm3.2 1 .2 1.4 2.6.8.2-1zm14 5.5 1.1 1.9 1.8-.1.4-1.4zm18.2 3 1.4 2.6 1-1.2v-1.8zM479.9 533l2.4 2.2v2.4h-3.8V535zm39.9-75 6 8.5 2 1.5.9 3.8 9.3.7 1 .6-1 4.7-6 3.6-9 2.7-4.8 4.7-5.7-3.4-3.5 3-4.7-7.8-3.3-1.5-1.2-1.8v-3.9l-12-14.4-.4-2.6h3.4l4.2-3.6.1-1.8-1.1-1.2 2.3-2 5.1.3 8.7 7.2 5.1-.2.3 1.3zm264 91.9 1 3 2 1.8.5-.5-.2-2-2.1-2.6zm5.2 4.4.1 2 1.2 1.1 1.2-.7-1-2zm1.5 5-1 1 1 2 1.3.4v-1.4zm2.5-1.2.9 2.1 1.7 2 1-1.5-1.3-2.1zm4.4 3.2.5 2.7 1.2 1.6 1-2zm1.4 6-.4.8 1.4 1.9h1l-.6-2.5zm-3.2 3.8-1.5.7 1.3 1.8 1.1-.6zm-259.9-22.2-.5 1 1.4 1.2 1-1.2zm7.3-8-1.5 1 1.2 2h1.5zm.7 4.7-1 1.2.7 1.1 1.5.3.1-2.5zM466.1 505l-2.5-1.5-2.3-4.6.1-4.2 3.2-2.8.2-10.2h2.1l-.2-5.6 22.3.2 3.2-3.3 6.8 11-3.7 4.5v6.8l-4.6 9.9-1 2.3-3.8-5.4-2.7 3.5-3 .8-10-1-4.3 1.6z"/><path d="m445.2 329.5 1.7 1.6h3.2l1.7 3.3.5 5.8-4.3 3v3l-3 4.2-1.7.2-2.4 4 .2 3.8 4 3-.2 1.8-1.6 2.4-2.4 2 .2 7-3.7 1.2-1.3 2.7h-1.7l-1-4.8-4-6 3.3-5.5.3-13.5 2.2-1.2.6-7.7 6.4-9.2z" class="mainland"/><path d="m445.9 369-1.8 1.4.9 2 1.6-1.5zm212.4 158.7.7.4 1.5-.1v-1.2l-1.3.2zM442.7 405l-2.2 1.4-4 .9.7 2.4h3l2.6-2.2zm.9-4.1.6.5v.9l6.7-.1 4.9-2.1-.1-2.2-1 .4-1.3-.7h-.8l-2.2.8-3-.7zm-70.8 108.9 4.9 4.7 3.5-4.2-2.2-3.4-3 .3zm-.4-11-5.8-.2 1.1 2.6.6-1.6 7.3.8h4.2l.1-1.4-3.1-3.8-3.5-4.7-2.1-.9-1.7.5-3.4 2.4-.8 1.4-.2 1.4 1.2 1 4.2-.1 2.7-.8.3 1.3-.2 1.8zm154.3 3.2 3.8-1.5 1.3.8-.1 3.3-3.5 10-18.9 20.2-2.1-1.5-.2-8.6 2.8-3.2 6-1.9 8.9-9.3 2.3-2 .6-3zm-258.3 14.7 1.7 1.6 2.8-1.7 2.5.1-.4 1-1 2.2-.2 5.4-5 2 .3-3.5-3.2-3 .2-1.5zm220.9-8.7-2 1 .6 3.5h2.6l3.4 5-2.7.3-.7 1.3-.1 1.9-8.3-.2-.9-1.3-5.8-.3-10.6-11 1-.6 4.6-1.4 9.9.8 3.3-.8 2.3-3zM422 530.6l.9-.5.7.6-.7 1.1-.9-.3zm2-3.2 1.4-.3.5 1-.7.8-.8-.1zm-234.7-32.2 4 2V494l-2-1.2zm298.2-58-.3 2.2 2.5 1-.1 6h2.4l2.5-1.8.9-.2 5.5-4.4 1.1-6.4-11 1.2-1.2 2.5zm-5 159.8-2.1.3-1 2.6 1.7 1.5h2l1.7-2.4zM441 495v-2.6l4.2-4 1-9.7-2.6-5.3 1.9-1 18.5 9.7-.2 9.5-3.2 2.7v5l2.1 4H459l-6.3 6.2-.2 1.9H448v.8l-2.6-.4-1.8-3.4-1.4-.6.2-1 1.7-1.4v-6l-2.4-.4-2.8-2.1zm-32.5 21.8 2.3-1.3v-9l-1.5-2.4-1 .8zM646 473l2.8 3.5v4.4l1 .5 4.5-2.2.8.3 5.4 6.2-.2 4.2-1.8-.3-1.5-1h-1.2l-2 3.5.4 1.8 1.6 1v2l-1.2.6-4-2.8v-2.4l-1.6-.1-.7 1-.4 11 2.6 4.7 4.5 4.3-.1 1.3h-2.5l-2.2-3.4H648l-3-2.3-.8-2.5 1.3-2 .4-1.9 1.4-2.4v-5.6l-3.4-4.8-.2-.6 1.1-1-.2-3.9-4.5-5.6.5-3.3zm-86.3-50.8 3.6-4.4h1.3l.5 1-1.6 1.2v1l1 .8 5.2.3 1.7-.8.8.2.5 1.7 3.1.3 1.6 3.2-.5 1h-.6l-.6-1.2h-1.4l-2.3.2-.2 2.2-2.3-.1.1-2.8-1.7-1.6-2.5 2v1.5l-2.2.8h-1.4l.1-4.9zm-31.4-3.6-.5 2.2h-3.6v3.1l3.9 2.6-1.2 3.4v1.6l1.6.3 2-2.8 4.9-1 10.2 3.8.1 2.8 5.8.6 6.3-6.7-.8-2.2-4.2-1-12-7.7-.5-2.8h-4.5l-2 3.8zm-102.8 17 4.8-1.9 1.6 1v1.3l-.7 1 .1 1.6.7.4v3l-.8 1.5.1 1 3.2 1-2.6 4h-1l-.2 3.2-1 .2-1-.8.2-3.3-3.2-3-.4-2.8 1.6-1.1z"/><path d="m472.8 422-2.3-1.5-1.3-1-2.1.9-1.5 3.7 2.2-.5 1.6-1.2 3.4 1-1.9 1.9-5.2-.3-1.9 2v1.1l1.2 1v1.2l-.5 1.3.5 1.1 1.7-.8 1.6 1.7-.4 1.3-.6.8.9 1 4.4 1 3.2-1.4v-2l1.5.4 3.6 2.1 4-.6 1.7-1.6 1.1.4v1.8h1.5l1.4-2.5L502 433l5-.6-1.3-1.7v-2.4l1-1.2-3.7-3 .2-2.5h-2l-3.4-1.7-1.9 2-7-.1-4.3-2.6-4.1.4-4.6 2.7zM259 502.6l-1 .8-1 .2v1.2l1.9 1.7.8-1.2.4-1.4-.1-1.2zm436.7-48.8-3 2.3-.2 4.5 2.6 3 .7-.5zM492.2 560l13.8-1.7-3.4-6.5-.2-6.3 1.1-3-14.3-9-4.5.7-1.6 1.1-.1 2.7-1 3.6-1.1 1.3-1.5.1 2.8 9.4 4.8 2.9h4.2zm-31.5-171.2-2.5 1.4.6 2.7-2.3 4.8v2.2l1 .7 7 .3 2-1.6 2.1.7 3 4-2.2 4 2.6.7 3.4-4 2 .4 1.8 1.3-1.6 2.1 2.2 3.4h2.3l1.1-2.3 2.5-.5v-1.8l-4.5-.7.2-2h4.4l4.7-3.7 2-1.9.4-5.7-9.3-.9-3.8-5.4-2.7-.9-3.2.2-1.4 3.5-6.6.1-2.1-1z"/><path d="m480.3 532.2 2.6 2.5 1.7-1 4.4-.8h.8l.3-1.6 2.5-5.3-2.1-4.4h-6.9v1.9l.9.9-.1 1.8z"/><path d="m143.6 376-.9 3.5-3-2h-1.5l-.9 3.7-10.5 23.7 2.8 20.6 3.4 1.7.7 5.6h7l7 5.2 13.5 1.3 1.5 7 2.2 1.5 3-3 2.4 1 2.1 10 3.7 2.4 3-5.6 9.3-6.8 6 2.9 5.2.4.2-3.3 10.7.3 2.2 2.3.4 5.5-1.3 3 1.5 5.2h3.3l3.2-5-1.3-2.4-1.3-5.2 2-5.8 8.8-7.6 6.7-2-1-6.3 9.4-10 9.2-1.5-1.5-5.2 9-5.2v-7l-.8-.3-3.3 1-.4 4.3-10.7.1-8.4 5.6-13.3 4.3-2-2.5 6-9.1-3-2.8-2-3.9-4.2-3.3-4.6-.4-8.5-5.9z" class="mainland"/><path d="m74.8 285.2 3 5.6 1.9-.4v-2zm-16.9 49.2-.1 2.6 1.8-.4v-1.2zm-2.8 1.2-3.8 1.9.6 2 1.4-1.2 3-1.3zM39.5 338l-2.5-.5-.5 1.1.3 2.2zm-5.4-.1-2.5-1-.8 1.6 1.5 1.6zm61.4-60-7.3 1.7 1.5 8.2 8 2.2.3 1.7-11.7 3.6-6.6 11 2.3 11.6 3.9 2.6 3-2.8.8 1.7-3.6 4.3-14 6.5-9 2.1-.3 3.2 20.7-6 8.6-2.4 7.9-9.6 8.7-5.8-4.5 7.5 5 .6 8.3-3.6 1.5 6 5.7 1.3 6 5.8.4 4.3-.8 1 1 4.1h1.5l.2-6.8h1.7l.5 17 4.2-3.7-3-17.6H132l-5-6.3 24.2-40.8-24-18.7-26.6 5.1-1 8.2 5.7 3.5-2.1 5.5zm179.1 334.6-1.7 1.9.7 10.2 5.6 1.6 7-7.1zm284-184 2.7.1v-4.5l-2.5-1.5 4.2-5.4h1.8l1.7 2 4.5-1.7-6.2-2.1-.3-1.3-1.5.3-1.4 2.6-6.3-.2-4.6-6.6-8.2.8-3.8-3.8-5.4-1-3.9 1.7 2.3 7.5v2.5h1.6l2-3.8h5.4l.8 3 11.5 7.6 4.4 1zm-299.8 68.1-1 .8.8 1.5 1.4-.8zm-1.3 3-1 1 .4.6h1.2l.4-1zm-26 4 .4 2.2 2.8.9.6-4.1 3-3.1 3 3.5 6.8 1.8 5.8-1.2 3.9 4.9 3 1.8-3.3 5 1 3.7-1.8 2.3-1.9 1.6-4.2-2-1 1v3l3.1 1.4-2.2 2.4-2.3 2.4-3-.2-3-3.3-.6-12.3-10.1-3.5-1.9-5.4zm427.5-1.3 1 1.6.3 1.9 2.7.2 3.2-4.3 3.1-1 1.7-4.4-.8-7.2-3.2-4.4-3.3-2.7-4.3-7.3 3-5.1-4.3-5-3.6-.2-3.1 1.7 1 4 4.1.8 1.2 3.1-1.5 1v.8l10 9.6.4 2.9-.6 9zm152 80.2-1 1.4.4 1.6.5.4 1-1.3zm.5 4.4.1 1.1 1.2.4.8-.4-.8-1.3zm1.7 10.4-.5.8.8 1 1.3-.5z"/><path d="m509.4 489.1 1.3 3.7v3.6l3 2.8 21-8.6.2-2.4-3.3-6-8.5 2.7-4.9 4.7-5.6-3.3z" class="mainland"/><path d="m533.3 498.1 1.9 2.1 2.4-1.5 1-.3-1.2-1.1-2.2.6zM476.7 588l-6.8 6.3-1.6 4-5.4-.7-4.5 4-3-.3.2-5.6-1-.3-.8 11.3h-5.3l-1.6-2h-2.3l2 6.1 4 3.6-2.8 3.2 1.7 4 4.1 1.6 3.3-2.8h9.3l.7-.8 4-.7 14-14v-4.3l-1.5 2h-2.2l-2.7-2.4 1.3-3.4 2.4-.5-.2-7zm-3.2 16h1.3l2 2.3v2.6l-2.5 1.3-.1.9h-3.8l-1.2-2.9 1-2zm-13.7-32.3 2.7 3.8 4.3.2 1.5.8 4.4.1 3.8-5.4 10.7-4.8 1-4.2-1.3-6-5.6-3.2-3.7.3-1.8 4v2l4.4 2 .3 4.7-3.8.2-1-1.5-10.4-4.5-.3 3.4-5 .2z"/><path d="m468.5 578.2 7.8 8.8 6 1.5 4-6.3-.4-8.2-6.5-3.4-2.4 1.1-3.6 5.6-5-.1z"/></svg>